STARTFONT 2.1
FONT -Fondu-Espy Sans Bold-Medium-R-Normal--14-130-75-75-P-94-MacRoman-1
SIZE 13 75 75
FONTBOUNDINGBOX 19 18 -1 -3
COMMENT Created by Fondu from a mac NFNT/FONT resource
STARTPROPERTIES 17
FOUNDRY "Fondu"
FAMILY_NAME "Espy Sans Bold"
WEIGHT_NAME "Medium"
SLANT "R"
SETWIDTH_NAME "Normal"
ADD_STYLE_NAME ""
PIXEL_SIZE 14
POINT_SIZE 130
RESOLUTION_X 75
RESOLUTION_Y 75
SPACING "P"
AVERAGE_WIDTH 94
CHARSET_REGISTRY "MacRoman"
CHARSET_ENCODING "1"
FONT_ASCENT 15
FONT_DESCENT 3
FACE_NAME "Espy Sans Bold 14"
ENDPROPERTIES
CHARS 224
STARTCHAR space
ENCODING 32
SWIDTH 285 0
DWIDTH 4 0
BBX 0 0 -1 -3
BITMAP
ENDCHAR
STARTCHAR exclam
ENCODING 33
SWIDTH 357 0
DWIDTH 5 0
BBX 3 11 1 0
BITMAP
E0
E0
E0
E0
E0
E0
E0
E0
00
E0
E0
ENDCHAR
STARTCHAR quotedbl
ENCODING 34
SWIDTH 500 0
DWIDTH 7 0
BBX 5 4 1 8
BITMAP
D8
D8
D8
48
ENDCHAR
STARTCHAR numbersign
ENCODING 35
SWIDTH 1071 0
DWIDTH 15 0
BBX 13 10 1 0
BITMAP
0E70
0E70
1CE0
7FF8
1CE0
39C0
FFF0
39C0
7380
7380
ENDCHAR
STARTCHAR dollar
ENCODING 36
SWIDTH 714 0
DWIDTH 10 0
BBX 8 15 1 -2
BITMAP
08
08
3E
E0
E0
F0
FC
7E
3F
0F
07
07
7C
10
10
ENDCHAR
STARTCHAR percent
ENCODING 37
SWIDTH 1000 0
DWIDTH 14 0
BBX 12 11 1 0
BITMAP
7070
D8E0
D9C0
DB80
7700
0700
0EE0
1DB0
39B0
71B0
E0E0
ENDCHAR
STARTCHAR ampersand
ENCODING 38
SWIDTH 1000 0
DWIDTH 14 0
BBX 12 11 1 0
BITMAP
3F00
7380
7380
7300
3E00
3E70
77E0
F3C0
F1C0
7BE0
3EF0
ENDCHAR
STARTCHAR quotesingle
ENCODING 39
SWIDTH 285 0
DWIDTH 4 0
BBX 2 4 1 8
BITMAP
C0
C0
C0
40
ENDCHAR
STARTCHAR parenleft
ENCODING 40
SWIDTH 500 0
DWIDTH 7 0
BBX 5 14 1 -2
BITMAP
18
30
70
60
E0
E0
E0
E0
E0
E0
60
70
30
18
ENDCHAR
STARTCHAR parenright
ENCODING 41
SWIDTH 500 0
DWIDTH 7 0
BBX 5 14 1 -2
BITMAP
C0
60
70
30
38
38
38
38
38
38
30
70
60
C0
ENDCHAR
STARTCHAR asterisk
ENCODING 42
SWIDTH 500 0
DWIDTH 7 0
BBX 5 6 1 6
BITMAP
20
A8
70
70
A8
20
ENDCHAR
STARTCHAR plus
ENCODING 43
SWIDTH 571 0
DWIDTH 8 0
BBX 6 5 1 3
BITMAP
30
30
FC
30
30
ENDCHAR
STARTCHAR comma
ENCODING 44
SWIDTH 357 0
DWIDTH 5 0
BBX 3 4 1 -2
BITMAP
E0
E0
20
C0
ENDCHAR
STARTCHAR hyphen
ENCODING 45
SWIDTH 500 0
DWIDTH 7 0
BBX 5 1 1 4
BITMAP
F8
ENDCHAR
STARTCHAR period
ENCODING 46
SWIDTH 357 0
DWIDTH 5 0
BBX 3 2 1 0
BITMAP
E0
E0
ENDCHAR
STARTCHAR slash
ENCODING 47
SWIDTH 500 0
DWIDTH 7 0
BBX 7 12 0 -1
BITMAP
06
06
0C
0C
18
18
30
30
60
60
C0
C0
ENDCHAR
STARTCHAR zero
ENCODING 48
SWIDTH 785 0
DWIDTH 11 0
BBX 9 11 1 0
BITMAP
3E00
6300
E380
E380
E380
E380
E380
E380
E380
6300
3E00
ENDCHAR
STARTCHAR one
ENCODING 49
SWIDTH 785 0
DWIDTH 11 0
BBX 6 11 2 0
BITMAP
1C
3C
7C
DC
9C
1C
1C
1C
1C
1C
1C
ENDCHAR
STARTCHAR two
ENCODING 50
SWIDTH 785 0
DWIDTH 11 0
BBX 9 11 1 0
BITMAP
7F00
E780
E380
0380
0780
0F00
1C00
3800
7000
FF80
FF80
ENDCHAR
STARTCHAR three
ENCODING 51
SWIDTH 785 0
DWIDTH 11 0
BBX 9 11 1 0
BITMAP
7F00
E780
C380
0380
0700
1E00
0700
0380
C380
E780
7F00
ENDCHAR
STARTCHAR four
ENCODING 52
SWIDTH 785 0
DWIDTH 11 0
BBX 9 11 1 0
BITMAP
0300
0700
0F00
1F00
3700
6700
C700
FF80
0700
0700
0700
ENDCHAR
STARTCHAR five
ENCODING 53
SWIDTH 785 0
DWIDTH 11 0
BBX 9 11 1 0
BITMAP
FF00
FF00
C000
C000
FF00
0780
0380
0380
C380
E700
7E00
ENDCHAR
STARTCHAR six
ENCODING 54
SWIDTH 785 0
DWIDTH 11 0
BBX 9 11 1 0
BITMAP
0E00
3800
7000
E000
FE00
E700
E380
E380
E380
7700
3E00
ENDCHAR
STARTCHAR seven
ENCODING 55
SWIDTH 785 0
DWIDTH 11 0
BBX 9 11 1 0
BITMAP
FF80
FF80
0380
0700
0E00
0E00
1C00
1C00
3800
3800
3800
ENDCHAR
STARTCHAR eight
ENCODING 56
SWIDTH 785 0
DWIDTH 11 0
BBX 9 11 1 0
BITMAP
7F00
E380
E380
E380
6300
3E00
6300
E380
E380
E380
7F00
ENDCHAR
STARTCHAR nine
ENCODING 57
SWIDTH 785 0
DWIDTH 11 0
BBX 9 11 1 0
BITMAP
3E00
7700
E380
E380
E380
7380
3F80
0380
0700
0E00
3800
ENDCHAR
STARTCHAR colon
ENCODING 58
SWIDTH 357 0
DWIDTH 5 0
BBX 3 8 1 0
BITMAP
E0
E0
00
00
00
00
E0
E0
ENDCHAR
STARTCHAR semicolon
ENCODING 59
SWIDTH 357 0
DWIDTH 5 0
BBX 3 10 1 -2
BITMAP
E0
E0
00
00
00
00
E0
E0
20
C0
ENDCHAR
STARTCHAR less
ENCODING 60
SWIDTH 714 0
DWIDTH 10 0
BBX 8 7 1 1
BITMAP
03
0E
38
E0
38
0E
03
ENDCHAR
STARTCHAR equal
ENCODING 61
SWIDTH 642 0
DWIDTH 9 0
BBX 7 4 1 3
BITMAP
FE
00
00
FE
ENDCHAR
STARTCHAR greater
ENCODING 62
SWIDTH 714 0
DWIDTH 10 0
BBX 8 7 1 1
BITMAP
C0
70
1C
07
1C
70
C0
ENDCHAR
STARTCHAR question
ENCODING 63
SWIDTH 571 0
DWIDTH 8 0
BBX 6 11 1 0
BITMAP
F8
1C
0C
1C
38
70
60
60
00
60
60
ENDCHAR
STARTCHAR at
ENCODING 64
SWIDTH 928 0
DWIDTH 13 0
BBX 11 8 1 0
BITMAP
1F00
60C0
CE60
DB60
DB60
CDC0
6000
3E00
ENDCHAR
STARTCHAR A
ENCODING 65
SWIDTH 857 0
DWIDTH 12 0
BBX 12 11 0 0
BITMAP
0600
0F00
0F00
1F80
1B80
33C0
31C0
7FE0
61E0
C0F0
C0F0
ENDCHAR
STARTCHAR B
ENCODING 66
SWIDTH 785 0
DWIDTH 11 0
BBX 9 11 1 0
BITMAP
FE00
E700
E700
E700
EE00
FF00
E780
E380
E380
E700
FE00
ENDCHAR
STARTCHAR C
ENCODING 67
SWIDTH 785 0
DWIDTH 11 0
BBX 9 11 1 0
BITMAP
1F80
7800
7000
F000
E000
E000
E000
F000
7000
7800
1F80
ENDCHAR
STARTCHAR D
ENCODING 68
SWIDTH 928 0
DWIDTH 13 0
BBX 11 11 1 0
BITMAP
FF00
E3C0
E1C0
E1E0
E0E0
E0E0
E0E0
E1E0
E1C0
E3C0
FF00
ENDCHAR
STARTCHAR E
ENCODING 69
SWIDTH 642 0
DWIDTH 9 0
BBX 7 11 1 0
BITMAP
FE
E0
E0
E0
E0
FC
E0
E0
E0
E0
FE
ENDCHAR
STARTCHAR F
ENCODING 70
SWIDTH 571 0
DWIDTH 8 0
BBX 7 11 1 0
BITMAP
FE
E0
E0
E0
E0
FC
E0
E0
E0
E0
E0
ENDCHAR
STARTCHAR G
ENCODING 71
SWIDTH 928 0
DWIDTH 13 0
BBX 11 11 1 0
BITMAP
1FC0
7800
7000
F000
E000
E1E0
E0E0
F0E0
70E0
78E0
1FE0
ENDCHAR
STARTCHAR H
ENCODING 72
SWIDTH 857 0
DWIDTH 12 0
BBX 10 11 1 0
BITMAP
E1C0
E1C0
E1C0
E1C0
FFC0
E1C0
E1C0
E1C0
E1C0
E1C0
E1C0
ENDCHAR
STARTCHAR I
ENCODING 73
SWIDTH 357 0
DWIDTH 5 0
BBX 3 11 1 0
BITMAP
E0
E0
E0
E0
E0
E0
E0
E0
E0
E0
E0
ENDCHAR
STARTCHAR J
ENCODING 74
SWIDTH 571 0
DWIDTH 8 0
BBX 7 11 0 0
BITMAP
0E
0E
0E
0E
0E
0E
0E
0E
0E
1E
FC
ENDCHAR
STARTCHAR K
ENCODING 75
SWIDTH 857 0
DWIDTH 12 0
BBX 11 11 1 0
BITMAP
E1C0
E380
E700
EE00
FC00
FC00
FE00
EF00
E780
E3C0
E1E0
ENDCHAR
STARTCHAR L
ENCODING 76
SWIDTH 642 0
DWIDTH 9 0
BBX 8 11 1 0
BITMAP
E0
E0
E0
E0
E0
E0
E0
E0
E0
E0
FF
ENDCHAR
STARTCHAR M
ENCODING 77
SWIDTH 1142 0
DWIDTH 16 0
BBX 14 11 1 0
BITMAP
F83C
F87C
FC7C
DCDC
DEDC
CF9C
CF9C
C71C
C71C
C21C
C21C
ENDCHAR
STARTCHAR N
ENCODING 78
SWIDTH 785 0
DWIDTH 11 0
BBX 9 11 1 0
BITMAP
C180
E180
F180
F980
FD80
DF80
CF80
C780
C380
C180
C080
ENDCHAR
STARTCHAR O
ENCODING 79
SWIDTH 1000 0
DWIDTH 14 0
BBX 12 11 1 0
BITMAP
1F80
79E0
70E0
F0F0
F0F0
F0F0
F0F0
F0F0
70E0
79E0
1F80
ENDCHAR
STARTCHAR P
ENCODING 80
SWIDTH 785 0
DWIDTH 11 0
BBX 9 11 1 0
BITMAP
FF00
E780
E380
E380
E380
E700
FE00
E000
E000
E000
E000
ENDCHAR
STARTCHAR Q
ENCODING 81
SWIDTH 1000 0
DWIDTH 14 0
BBX 12 13 1 -2
BITMAP
1F80
79E0
70E0
F0F0
F0F0
F0F0
F0F0
F0F0
70E0
79E0
1F80
0380
01E0
ENDCHAR
STARTCHAR R
ENCODING 82
SWIDTH 857 0
DWIDTH 12 0
BBX 10 11 1 0
BITMAP
FE00
E780
E380
E380
E380
E700
FE00
EF00
E780
E3C0
E1C0
ENDCHAR
STARTCHAR S
ENCODING 83
SWIDTH 714 0
DWIDTH 10 0
BBX 8 11 1 0
BITMAP
3F
F0
E0
F0
FC
7E
3F
0F
07
0F
FC
ENDCHAR
STARTCHAR T
ENCODING 84
SWIDTH 642 0
DWIDTH 9 0
BBX 9 11 0 0
BITMAP
FF80
1C00
1C00
1C00
1C00
1C00
1C00
1C00
1C00
1C00
1C00
ENDCHAR
STARTCHAR U
ENCODING 85
SWIDTH 785 0
DWIDTH 11 0
BBX 9 11 1 0
BITMAP
E180
E180
E180
E180
E180
E180
E180
E180
E180
7300
3E00
ENDCHAR
STARTCHAR V
ENCODING 86
SWIDTH 785 0
DWIDTH 11 0
BBX 10 11 1 0
BITMAP
E0C0
E0C0
F0C0
7180
7180
7980
3B00
3B00
3F00
1E00
1E00
ENDCHAR
STARTCHAR W
ENCODING 87
SWIDTH 1142 0
DWIDTH 16 0
BBX 15 11 1 0
BITMAP
F186
F186
718E
73CC
7BCC
3BD8
3AD8
3EF8
1C70
1C70
1C70
ENDCHAR
STARTCHAR X
ENCODING 88
SWIDTH 857 0
DWIDTH 12 0
BBX 10 11 1 0
BITMAP
F0C0
F1C0
7980
3B00
3E00
1E00
1F00
3700
6780
E3C0
C3C0
ENDCHAR
STARTCHAR Y
ENCODING 89
SWIDTH 785 0
DWIDTH 11 0
BBX 11 11 0 0
BITMAP
F0E0
F0C0
79C0
3980
3D80
1F00
0E00
0E00
0E00
0E00
0E00
ENDCHAR
STARTCHAR Z
ENCODING 90
SWIDTH 714 0
DWIDTH 10 0
BBX 8 11 1 0
BITMAP
FF
07
0F
1E
1E
3C
78
78
F0
E0
FF
ENDCHAR
STARTCHAR bracketleft
ENCODING 91
SWIDTH 357 0
DWIDTH 5 0
BBX 4 14 1 -2
BITMAP
F0
C0
C0
C0
C0
C0
C0
C0
C0
C0
C0
C0
C0
F0
ENDCHAR
STARTCHAR backslash
ENCODING 92
SWIDTH 500 0
DWIDTH 7 0
BBX 7 12 0 -1
BITMAP
C0
C0
60
60
30
30
18
18
0C
0C
06
06
ENDCHAR
STARTCHAR bracketright
ENCODING 93
SWIDTH 428 0
DWIDTH 6 0
BBX 4 14 1 -2
BITMAP
F0
30
30
30
30
30
30
30
30
30
30
30
30
F0
ENDCHAR
STARTCHAR asciicircum
ENCODING 94
SWIDTH 642 0
DWIDTH 9 0
BBX 7 7 1 4
BITMAP
10
38
38
6C
6C
C6
C6
ENDCHAR
STARTCHAR underscore
ENCODING 95
SWIDTH 571 0
DWIDTH 8 0
BBX 8 1 0 -1
BITMAP
FF
ENDCHAR
STARTCHAR grave
ENCODING 96
SWIDTH 428 0
DWIDTH 6 0
BBX 4 2 1 10
BITMAP
E0
30
ENDCHAR
STARTCHAR a
ENCODING 97
SWIDTH 714 0
DWIDTH 10 0
BBX 8 8 1 0
BITMAP
7E
0F
07
7F
E7
E7
EF
7B
ENDCHAR
STARTCHAR b
ENCODING 98
SWIDTH 714 0
DWIDTH 10 0
BBX 8 11 1 0
BITMAP
E0
E0
E0
EE
F7
E7
E7
E7
E7
EE
FC
ENDCHAR
STARTCHAR c
ENCODING 99
SWIDTH 642 0
DWIDTH 9 0
BBX 7 8 1 0
BITMAP
3E
70
E0
E0
E0
E0
70
3E
ENDCHAR
STARTCHAR d
ENCODING 100
SWIDTH 714 0
DWIDTH 10 0
BBX 8 11 1 0
BITMAP
07
07
07
3F
67
E7
E7
E7
E7
EF
73
ENDCHAR
STARTCHAR e
ENCODING 101
SWIDTH 714 0
DWIDTH 10 0
BBX 8 8 1 0
BITMAP
3E
67
E7
FF
E0
E0
70
3F
ENDCHAR
STARTCHAR f
ENCODING 102
SWIDTH 500 0
DWIDTH 7 0
BBX 6 11 0 0
BITMAP
3C
70
70
FC
70
70
70
70
70
70
70
ENDCHAR
STARTCHAR g
ENCODING 103
SWIDTH 714 0
DWIDTH 10 0
BBX 8 11 1 -3
BITMAP
3F
77
E7
E7
E7
E7
EF
77
07
0E
7C
ENDCHAR
STARTCHAR h
ENCODING 104
SWIDTH 714 0
DWIDTH 10 0
BBX 8 11 1 0
BITMAP
E0
E0
E0
EE
F7
E7
E7
E7
E7
E7
E7
ENDCHAR
STARTCHAR i
ENCODING 105
SWIDTH 357 0
DWIDTH 5 0
BBX 3 11 1 0
BITMAP
E0
E0
00
E0
E0
E0
E0
E0
E0
E0
E0
ENDCHAR
STARTCHAR j
ENCODING 106
SWIDTH 357 0
DWIDTH 5 0
BBX 5 14 -1 -3
BITMAP
38
38
00
38
38
38
38
38
38
38
38
38
38
F0
ENDCHAR
STARTCHAR k
ENCODING 107
SWIDTH 714 0
DWIDTH 10 0
BBX 9 11 1 0
BITMAP
E000
E000
E000
E700
EE00
FC00
F800
FC00
EE00
E700
E380
ENDCHAR
STARTCHAR l
ENCODING 108
SWIDTH 357 0
DWIDTH 5 0
BBX 3 11 1 0
BITMAP
E0
E0
E0
E0
E0
E0
E0
E0
E0
E0
E0
ENDCHAR
STARTCHAR m
ENCODING 109
SWIDTH 1071 0
DWIDTH 15 0
BBX 13 8 1 0
BITMAP
EEF0
F7B8
E738
E738
E738
E738
E738
E738
ENDCHAR
STARTCHAR n
ENCODING 110
SWIDTH 714 0
DWIDTH 10 0
BBX 8 8 1 0
BITMAP
EE
F7
E7
E7
E7
E7
E7
E7
ENDCHAR
STARTCHAR o
ENCODING 111
SWIDTH 785 0
DWIDTH 11 0
BBX 9 8 1 0
BITMAP
3E00
7700
E380
E380
E380
E380
7700
3E00
ENDCHAR
STARTCHAR p
ENCODING 112
SWIDTH 714 0
DWIDTH 10 0
BBX 8 11 1 -3
BITMAP
EE
F7
E7
E7
E7
E7
E6
FC
E0
E0
E0
ENDCHAR
STARTCHAR q
ENCODING 113
SWIDTH 714 0
DWIDTH 10 0
BBX 8 11 1 -3
BITMAP
3F
67
E7
E7
E7
E7
EF
77
07
07
07
ENDCHAR
STARTCHAR r
ENCODING 114
SWIDTH 500 0
DWIDTH 7 0
BBX 6 8 1 0
BITMAP
EC
FC
E0
E0
E0
E0
E0
E0
ENDCHAR
STARTCHAR s
ENCODING 115
SWIDTH 571 0
DWIDTH 8 0
BBX 6 8 1 0
BITMAP
7C
E0
E0
F8
7C
1C
1C
F8
ENDCHAR
STARTCHAR t
ENCODING 116
SWIDTH 571 0
DWIDTH 8 0
BBX 6 10 1 0
BITMAP
70
70
FC
70
70
70
70
70
70
3C
ENDCHAR
STARTCHAR u
ENCODING 117
SWIDTH 714 0
DWIDTH 10 0
BBX 8 8 1 0
BITMAP
E7
E7
E7
E7
E7
E7
EF
77
ENDCHAR
STARTCHAR v
ENCODING 118
SWIDTH 642 0
DWIDTH 9 0
BBX 9 8 0 0
BITMAP
F180
F180
7100
3B00
3A00
3E00
1C00
1C00
ENDCHAR
STARTCHAR w
ENCODING 119
SWIDTH 928 0
DWIDTH 13 0
BBX 12 8 1 0
BITMAP
E730
E730
E730
77A0
77A0
39C0
39C0
39C0
ENDCHAR
STARTCHAR x
ENCODING 120
SWIDTH 785 0
DWIDTH 11 0
BBX 9 8 1 0
BITMAP
F180
F380
7B00
3E00
3E00
6F00
E780
C780
ENDCHAR
STARTCHAR y
ENCODING 121
SWIDTH 642 0
DWIDTH 9 0
BBX 9 11 0 -3
BITMAP
F180
F180
7100
7B00
3A00
3E00
1C00
1C00
1800
3800
7000
ENDCHAR
STARTCHAR z
ENCODING 122
SWIDTH 642 0
DWIDTH 9 0
BBX 7 8 1 0
BITMAP
FE
0E
1E
3C
78
F0
E0
FE
ENDCHAR
STARTCHAR braceleft
ENCODING 123
SWIDTH 357 0
DWIDTH 5 0
BBX 5 14 0 -2
BITMAP
38
60
60
60
60
60
C0
60
60
60
60
60
60
38
ENDCHAR
STARTCHAR bar
ENCODING 124
SWIDTH 285 0
DWIDTH 4 0
BBX 2 14 1 -2
BITMAP
C0
C0
C0
C0
C0
C0
C0
C0
C0
C0
C0
C0
C0
C0
ENDCHAR
STARTCHAR braceright
ENCODING 125
SWIDTH 428 0
DWIDTH 6 0
BBX 5 14 0 -2
BITMAP
E0
30
30
30
30
30
18
30
30
30
30
30
30
E0
ENDCHAR
STARTCHAR asciitilde
ENCODING 126
SWIDTH 785 0
DWIDTH 11 0
BBX 9 4 1 4
BITMAP
3880
7C80
9F00
8E00
ENDCHAR
STARTCHAR char007f
ENCODING 127
SWIDTH 0 0
DWIDTH 0 0
BBX 0 0 -1 -3
BITMAP
ENDCHAR
STARTCHAR Adieresis
ENCODING 128
SWIDTH 857 0
DWIDTH 12 0
BBX 12 13 0 0
BITMAP
1980
0000
0600
0F00
0F00
1F80
1B80
33C0
31C0
7FE0
61E0
C0F0
C0F0
ENDCHAR
STARTCHAR Aring
ENCODING 129
SWIDTH 857 0
DWIDTH 12 0
BBX 12 14 0 0
BITMAP
0600
0900
0600
0600
0F00
0F00
1F80
1B80
33C0
31C0
7FE0
61E0
C0F0
C0F0
ENDCHAR
STARTCHAR Ccedilla
ENCODING 130
SWIDTH 785 0
DWIDTH 11 0
BBX 9 14 1 -3
BITMAP
1F80
7800
7000
F000
E000
E000
E000
F000
7000
7800
1F80
0C00
0400
1800
ENDCHAR
STARTCHAR Eacute
ENCODING 131
SWIDTH 642 0
DWIDTH 9 0
BBX 7 14 1 0
BITMAP
1C
30
00
FE
E0
E0
E0
E0
FC
E0
E0
E0
E0
FE
ENDCHAR
STARTCHAR Ntilde
ENCODING 132
SWIDTH 785 0
DWIDTH 11 0
BBX 9 14 1 0
BITMAP
3900
4E00
0000
C180
E180
F180
F980
FD80
DF80
CF80
C780
C380
C180
C080
ENDCHAR
STARTCHAR Odieresis
ENCODING 133
SWIDTH 1000 0
DWIDTH 14 0
BBX 12 13 1 0
BITMAP
1980
0000
1F80
79E0
70E0
F0F0
F0F0
F0F0
F0F0
F0F0
70E0
79E0
1F80
ENDCHAR
STARTCHAR Udieresis
ENCODING 134
SWIDTH 785 0
DWIDTH 11 0
BBX 9 13 1 0
BITMAP
3300
0000
E180
E180
E180
E180
E180
E180
E180
E180
E180
7300
3E00
ENDCHAR
STARTCHAR aacute
ENCODING 135
SWIDTH 714 0
DWIDTH 10 0
BBX 8 11 1 0
BITMAP
0E
18
00
7E
0F
07
7F
E7
E7
EF
7B
ENDCHAR
STARTCHAR agrave
ENCODING 136
SWIDTH 714 0
DWIDTH 10 0
BBX 8 11 1 0
BITMAP
38
0C
00
7E
0F
07
7F
E7
E7
EF
7B
ENDCHAR
STARTCHAR acircumflex
ENCODING 137
SWIDTH 714 0
DWIDTH 10 0
BBX 8 12 1 0
BITMAP
08
1C
22
00
7E
0F
07
7F
E7
E7
EF
7B
ENDCHAR
STARTCHAR adieresis
ENCODING 138
SWIDTH 714 0
DWIDTH 10 0
BBX 8 11 1 0
BITMAP
66
00
00
7E
0F
07
7F
E7
E7
EF
7B
ENDCHAR
STARTCHAR atilde
ENCODING 139
SWIDTH 714 0
DWIDTH 10 0
BBX 8 11 1 0
BITMAP
39
4E
00
7E
0F
07
7F
E7
E7
EF
7B
ENDCHAR
STARTCHAR aring
ENCODING 140
SWIDTH 714 0
DWIDTH 10 0
BBX 8 12 1 0
BITMAP
18
24
18
00
7E
0F
07
7F
E7
E7
EF
7B
ENDCHAR
STARTCHAR ccedilla
ENCODING 141
SWIDTH 642 0
DWIDTH 9 0
BBX 7 10 1 -2
BITMAP
3E
70
E0
E0
E0
E0
70
1E
08
30
ENDCHAR
STARTCHAR eacute
ENCODING 142
SWIDTH 714 0
DWIDTH 10 0
BBX 8 11 1 0
BITMAP
0E
18
00
3E
67
E7
FF
E0
E0
70
3F
ENDCHAR
STARTCHAR egrave
ENCODING 143
SWIDTH 714 0
DWIDTH 10 0
BBX 8 11 1 0
BITMAP
38
0C
00
3E
67
E7
FF
E0
E0
70
3F
ENDCHAR
STARTCHAR ecircumflex
ENCODING 144
SWIDTH 714 0
DWIDTH 10 0
BBX 8 12 1 0
BITMAP
08
1C
22
00
3E
67
E7
FF
E0
E0
70
3F
ENDCHAR
STARTCHAR edieresis
ENCODING 145
SWIDTH 714 0
DWIDTH 10 0
BBX 8 11 1 0
BITMAP
33
00
00
3E
67
E7
FF
E0
E0
70
3F
ENDCHAR
STARTCHAR iacute
ENCODING 146
SWIDTH 357 0
DWIDTH 5 0
BBX 4 11 1 0
BITMAP
70
C0
00
E0
E0
E0
E0
E0
E0
E0
E0
ENDCHAR
STARTCHAR igrave
ENCODING 147
SWIDTH 357 0
DWIDTH 5 0
BBX 4 11 0 0
BITMAP
E0
30
00
70
70
70
70
70
70
70
70
ENDCHAR
STARTCHAR icircumflex
ENCODING 148
SWIDTH 357 0
DWIDTH 5 0
BBX 5 12 0 0
BITMAP
20
70
88
00
70
70
70
70
70
70
70
70
ENDCHAR
STARTCHAR idieresis
ENCODING 149
SWIDTH 357 0
DWIDTH 5 0
BBX 5 11 0 0
BITMAP
D8
00
00
70
70
70
70
70
70
70
70
ENDCHAR
STARTCHAR ntilde
ENCODING 150
SWIDTH 714 0
DWIDTH 10 0
BBX 8 11 1 0
BITMAP
39
4E
00
EE
F7
E7
E7
E7
E7
E7
E7
ENDCHAR
STARTCHAR oacute
ENCODING 151
SWIDTH 785 0
DWIDTH 11 0
BBX 9 11 1 0
BITMAP
0E00
1800
0000
3E00
7700
E380
E380
E380
E380
7700
3E00
ENDCHAR
STARTCHAR ograve
ENCODING 152
SWIDTH 785 0
DWIDTH 11 0
BBX 9 11 1 0
BITMAP
3800
0C00
0000
3E00
7700
E380
E380
E380
E380
7700
3E00
ENDCHAR
STARTCHAR ocircumflex
ENCODING 153
SWIDTH 785 0
DWIDTH 11 0
BBX 9 12 1 0
BITMAP
0800
1C00
2200
0000
3E00
7700
E380
E380
E380
E380
7700
3E00
ENDCHAR
STARTCHAR odieresis
ENCODING 154
SWIDTH 785 0
DWIDTH 11 0
BBX 9 11 1 0
BITMAP
3300
0000
0000
3E00
7700
E380
E380
E380
E380
7700
3E00
ENDCHAR
STARTCHAR otilde
ENCODING 155
SWIDTH 785 0
DWIDTH 11 0
BBX 9 11 1 0
BITMAP
3900
4E00
0000
3E00
7700
E380
E380
E380
E380
7700
3E00
ENDCHAR
STARTCHAR uacute
ENCODING 156
SWIDTH 714 0
DWIDTH 10 0
BBX 8 11 1 0
BITMAP
0E
18
00
E7
E7
E7
E7
E7
E7
EF
77
ENDCHAR
STARTCHAR ugrave
ENCODING 157
SWIDTH 714 0
DWIDTH 10 0
BBX 8 11 0 0
BITMAP
38
0C
00
E7
E7
E7
E7
E7
E7
EF
77
ENDCHAR
STARTCHAR ucircumflex
ENCODING 158
SWIDTH 714 0
DWIDTH 10 0
BBX 8 12 1 0
BITMAP
08
1C
22
00
E7
E7
E7
E7
E7
E7
EF
77
ENDCHAR
STARTCHAR udieresis
ENCODING 159
SWIDTH 714 0
DWIDTH 10 0
BBX 8 11 1 0
BITMAP
66
00
00
E7
E7
E7
E7
E7
E7
EF
77
ENDCHAR
STARTCHAR dagger
ENCODING 160
SWIDTH 857 0
DWIDTH 12 0
BBX 10 10 1 0
BITMAP
6180
9240
9240
7F80
1200
1200
7F80
9240
9240
6180
ENDCHAR
STARTCHAR degree
ENCODING 161
SWIDTH 428 0
DWIDTH 6 0
BBX 4 4 1 7
BITMAP
60
90
90
60
ENDCHAR
STARTCHAR cent
ENCODING 162
SWIDTH 642 0
DWIDTH 9 0
BBX 7 10 1 -1
BITMAP
08
3E
68
E8
E8
E8
E8
68
3E
08
ENDCHAR
STARTCHAR sterling
ENCODING 163
SWIDTH 642 0
DWIDTH 9 0
BBX 8 11 1 0
BITMAP
3E
70
70
70
FC
70
70
70
60
7F
FE
ENDCHAR
STARTCHAR section
ENCODING 164
SWIDTH 928 0
DWIDTH 13 0
BBX 11 11 1 0
BITMAP
0400
0E00
1F00
2E80
75C0
FBE0
75C0
2E80
1F00
0E00
0400
ENDCHAR
STARTCHAR bullet
ENCODING 165
SWIDTH 571 0
DWIDTH 8 0
BBX 6 5 1 3
BITMAP
78
FC
FC
FC
78
ENDCHAR
STARTCHAR paragraph
ENCODING 166
SWIDTH 642 0
DWIDTH 9 0
BBX 7 11 1 0
BITMAP
7E
F6
F6
F6
F6
76
16
16
16
16
16
ENDCHAR
STARTCHAR germandbls
ENCODING 167
SWIDTH 857 0
DWIDTH 12 0
BBX 10 11 1 0
BITMAP
7E00
E300
E300
E700
EE00
EF00
E780
E3C0
E1C0
E1C0
EF80
ENDCHAR
STARTCHAR registered
ENCODING 168
SWIDTH 714 0
DWIDTH 10 0
BBX 8 8 1 0
BITMAP
3C
42
B9
A5
B9
A5
42
3C
ENDCHAR
STARTCHAR copyright
ENCODING 169
SWIDTH 714 0
DWIDTH 10 0
BBX 8 8 1 0
BITMAP
3C
42
99
A1
A1
99
42
3C
ENDCHAR
STARTCHAR trademark
ENCODING 170
SWIDTH 785 0
DWIDTH 11 0
BBX 9 4 1 7
BITMAP
E880
4D80
4A80
4A80
ENDCHAR
STARTCHAR acute
ENCODING 171
SWIDTH 428 0
DWIDTH 6 0
BBX 4 2 1 9
BITMAP
70
C0
ENDCHAR
STARTCHAR dieresis
ENCODING 172
SWIDTH 500 0
DWIDTH 7 0
BBX 5 1 1 10
BITMAP
D8
ENDCHAR
STARTCHAR notequal
ENCODING 173
SWIDTH 714 0
DWIDTH 10 0
BBX 8 8 1 1
BITMAP
02
04
FF
08
10
FF
20
40
ENDCHAR
STARTCHAR AE
ENCODING 174
SWIDTH 1214 0
DWIDTH 17 0
BBX 16 11 0 0
BITMAP
01FF
03F0
0370
0670
0E70
0C7E
1FF0
3870
3070
7070
E07F
ENDCHAR
STARTCHAR Oslash
ENCODING 175
SWIDTH 1000 0
DWIDTH 14 0
BBX 12 11 1 0
BITMAP
1F90
79E0
70E0
F1F0
F2F0
F4F0
F8F0
F0F0
70E0
79E0
9F80
ENDCHAR
STARTCHAR infinity
ENCODING 176
SWIDTH 1000 0
DWIDTH 14 0
BBX 12 5 1 3
BITMAP
79E0
8F90
8F10
9F10
7DE0
ENDCHAR
STARTCHAR plusminus
ENCODING 177
SWIDTH 571 0
DWIDTH 8 0
BBX 6 7 1 2
BITMAP
30
30
FC
30
30
00
FC
ENDCHAR
STARTCHAR lessequal
ENCODING 178
SWIDTH 714 0
DWIDTH 10 0
BBX 8 7 1 1
BITMAP
0F
7C
E0
7C
0F
00
FF
ENDCHAR
STARTCHAR greaterequal
ENCODING 179
SWIDTH 714 0
DWIDTH 10 0
BBX 8 7 1 1
BITMAP
F0
3E
07
3E
F0
00
FF
ENDCHAR
STARTCHAR yen
ENCODING 180
SWIDTH 785 0
DWIDTH 11 0
BBX 11 11 0 0
BITMAP
F0E0
F0C0
79C0
3980
3D80
1F00
7FC0
0E00
7FC0
0E00
0E00
ENDCHAR
STARTCHAR mu
ENCODING 181
SWIDTH 714 0
DWIDTH 10 0
BBX 8 11 1 -3
BITMAP
E7
E7
E7
E7
E7
E7
EF
F7
C0
C0
C0
ENDCHAR
STARTCHAR partialdiff
ENCODING 182
SWIDTH 714 0
DWIDTH 10 0
BBX 8 11 1 0
BITMAP
78
0E
06
07
3F
67
E7
E7
E7
F6
7C
ENDCHAR
STARTCHAR summation
ENCODING 183
SWIDTH 642 0
DWIDTH 9 0
BBX 7 12 1 -1
BITMAP
FE
E2
F0
78
3C
1C
18
30
60
C2
FE
FE
ENDCHAR
STARTCHAR product
ENCODING 184
SWIDTH 928 0
DWIDTH 13 0
BBX 11 12 1 -1
BITMAP
FFE0
71C0
71C0
71C0
71C0
71C0
71C0
71C0
71C0
71C0
71C0
FBE0
ENDCHAR
STARTCHAR pi
ENCODING 185
SWIDTH 857 0
DWIDTH 12 0
BBX 11 7 1 0
BITMAP
FFC0
7380
7380
7380
73E0
73C0
F380
ENDCHAR
STARTCHAR integral
ENCODING 186
SWIDTH 428 0
DWIDTH 6 0
BBX 4 16 1 -3
BITMAP
30
60
60
60
60
60
60
60
60
60
60
60
60
60
60
C0
ENDCHAR
STARTCHAR ordfeminine
ENCODING 187
SWIDTH 571 0
DWIDTH 8 0
BBX 6 6 1 5
BITMAP
7C
CC
DC
6C
00
FC
ENDCHAR
STARTCHAR ordmasculine
ENCODING 188
SWIDTH 571 0
DWIDTH 8 0
BBX 6 6 1 5
BITMAP
78
CC
CC
78
00
FC
ENDCHAR
STARTCHAR Omega
ENCODING 189
SWIDTH 928 0
DWIDTH 13 0
BBX 11 11 1 0
BITMAP
3F80
71C0
E0E0
C060
C060
C060
E0E0
60C0
3180
B1A0
F1E0
ENDCHAR
STARTCHAR ae
ENCODING 190
SWIDTH 1071 0
DWIDTH 15 0
BBX 13 8 1 0
BITMAP
7DF0
0F38
0738
7FF8
E700
E700
EF80
79F8
ENDCHAR
STARTCHAR oslash
ENCODING 191
SWIDTH 785 0
DWIDTH 11 0
BBX 9 10 1 -1
BITMAP
0080
3F00
7700
E780
EB80
EB80
F380
7700
7E00
8000
ENDCHAR
STARTCHAR questiondown
ENCODING 192
SWIDTH 571 0
DWIDTH 8 0
BBX 6 11 1 -3
BITMAP
18
18
00
18
18
38
70
E0
C0
E0
7C
ENDCHAR
STARTCHAR exclamdown
ENCODING 193
SWIDTH 285 0
DWIDTH 4 0
BBX 2 11 1 -3
BITMAP
C0
C0
00
C0
C0
C0
C0
C0
C0
C0
C0
ENDCHAR
STARTCHAR logicalnot
ENCODING 194
SWIDTH 785 0
DWIDTH 11 0
BBX 9 5 1 1
BITMAP
FF80
FF80
0180
0180
0180
ENDCHAR
STARTCHAR radical
ENCODING 195
SWIDTH 714 0
DWIDTH 10 0
BBX 9 12 0 -1
BITMAP
0180
0180
0300
0300
0300
E600
6600
3400
3400
1C00
1800
0800
ENDCHAR
STARTCHAR florin
ENCODING 196
SWIDTH 642 0
DWIDTH 9 0
BBX 10 14 -1 -2
BITMAP
03C0
0700
0700
1FC0
0E00
0E00
0E00
1C00
1C00
1C00
3800
3800
3800
F000
ENDCHAR
STARTCHAR approxequal
ENCODING 197
SWIDTH 714 0
DWIDTH 10 0
BBX 8 5 1 3
BITMAP
7B
DE
00
7B
DE
ENDCHAR
STARTCHAR Delta
ENCODING 198
SWIDTH 1000 0
DWIDTH 14 0
BBX 12 11 1 0
BITMAP
0600
0F00
0F00
1380
1380
21C0
21C0
40E0
40E0
8070
FFF0
ENDCHAR
STARTCHAR guillemotleft
ENCODING 199
SWIDTH 714 0
DWIDTH 10 0
BBX 8 7 1 1
BITMAP
1B
36
6C
D8
6C
36
1B
ENDCHAR
STARTCHAR guillemotright
ENCODING 200
SWIDTH 714 0
DWIDTH 10 0
BBX 8 7 1 1
BITMAP
D8
6C
36
1B
36
6C
D8
ENDCHAR
STARTCHAR ellipsis
ENCODING 201
SWIDTH 857 0
DWIDTH 12 0
BBX 10 2 1 0
BITMAP
CCC0
CCC0
ENDCHAR
STARTCHAR nbspace
ENCODING 202
SWIDTH 285 0
DWIDTH 4 0
BBX 0 0 -1 -3
BITMAP
ENDCHAR
STARTCHAR Agrave
ENCODING 203
SWIDTH 857 0
DWIDTH 12 0
BBX 12 14 0 0
BITMAP
1C00
0600
0000
0600
0F00
0F00
1F80
1B80
33C0
31C0
7FE0
61E0
C0F0
C0F0
ENDCHAR
STARTCHAR Atilde
ENCODING 204
SWIDTH 857 0
DWIDTH 12 0
BBX 12 14 0 0
BITMAP
0E40
1380
0000
0600
0F00
0F00
1F80
1B80
33C0
31C0
7FE0
61E0
C0F0
C0F0
ENDCHAR
STARTCHAR Otilde
ENCODING 205
SWIDTH 1000 0
DWIDTH 14 0
BBX 12 14 1 0
BITMAP
0E40
1380
0000
1F80
79E0
70E0
F0F0
F0F0
F0F0
F0F0
F0F0
70E0
79E0
1F80
ENDCHAR
STARTCHAR OE
ENCODING 206
SWIDTH 1142 0
DWIDTH 16 0
BBX 14 11 1 0
BITMAP
1FFC
79C0
71C0
F1C0
F1C0
F1F8
F1C0
F1C0
71C0
79C0
1FFC
ENDCHAR
STARTCHAR oe
ENCODING 207
SWIDTH 1142 0
DWIDTH 16 0
BBX 14 8 1 0
BITMAP
3EF8
779C
E39C
E3FC
E380
E380
77C0
3EFC
ENDCHAR
STARTCHAR endash
ENCODING 208
SWIDTH 857 0
DWIDTH 12 0
BBX 10 1 1 4
BITMAP
FFC0
ENDCHAR
STARTCHAR emdash
ENCODING 209
SWIDTH 1285 0
DWIDTH 18 0
BBX 16 1 1 4
BITMAP
FFFF
ENDCHAR
STARTCHAR quotedblleft
ENCODING 210
SWIDTH 500 0
DWIDTH 7 0
BBX 5 4 1 8
BITMAP
48
90
D8
D8
ENDCHAR
STARTCHAR quotedblright
ENCODING 211
SWIDTH 500 0
DWIDTH 7 0
BBX 5 4 1 8
BITMAP
D8
D8
48
90
ENDCHAR
STARTCHAR quoteleft
ENCODING 212
SWIDTH 285 0
DWIDTH 4 0
BBX 2 4 1 8
BITMAP
40
80
C0
C0
ENDCHAR
STARTCHAR quoteright
ENCODING 213
SWIDTH 285 0
DWIDTH 4 0
BBX 2 4 1 8
BITMAP
C0
C0
40
80
ENDCHAR
STARTCHAR divide
ENCODING 214
SWIDTH 714 0
DWIDTH 10 0
BBX 8 7 1 2
BITMAP
18
18
00
FF
00
18
18
ENDCHAR
STARTCHAR lozenge
ENCODING 215
SWIDTH 642 0
DWIDTH 9 0
BBX 7 13 1 -1
BITMAP
10
10
38
28
6C
44
C6
44
6C
28
38
10
10
ENDCHAR
STARTCHAR ydieresis
ENCODING 216
SWIDTH 642 0
DWIDTH 9 0
BBX 9 13 0 -3
BITMAP
3300
0000
F180
F180
7100
7B00
3A00
3E00
1C00
1C00
1800
3800
7000
ENDCHAR
STARTCHAR Ydieresis
ENCODING 217
SWIDTH 785 0
DWIDTH 11 0
BBX 11 13 0 0
BITMAP
1980
0000
F0E0
F0C0
79C0
3980
3D80
1F00
0E00
0E00
0E00
0E00
0E00
ENDCHAR
STARTCHAR fraction
ENCODING 218
SWIDTH 500 0
DWIDTH 7 0
BBX 7 12 0 -1
BITMAP
06
06
0C
0C
18
18
30
30
60
60
C0
C0
ENDCHAR
STARTCHAR currency
ENCODING 219
SWIDTH 714 0
DWIDTH 10 0
BBX 8 8 1 0
BITMAP
BD
7E
C3
C3
C3
C3
7E
BD
ENDCHAR
STARTCHAR guilsinglleft
ENCODING 220
SWIDTH 500 0
DWIDTH 7 0
BBX 5 7 1 1
BITMAP
18
30
60
C0
60
30
18
ENDCHAR
STARTCHAR guilsinglright
ENCODING 221
SWIDTH 500 0
DWIDTH 7 0
BBX 5 7 1 1
BITMAP
C0
60
30
18
30
60
C0
ENDCHAR
STARTCHAR fi
ENCODING 222
SWIDTH 714 0
DWIDTH 10 0
BBX 9 11 0 0
BITMAP
3F80
7380
7000
FF80
7380
7380
7380
7380
7380
7380
7380
ENDCHAR
STARTCHAR fl
ENCODING 223
SWIDTH 714 0
DWIDTH 10 0
BBX 9 11 0 0
BITMAP
3F80
7380
7380
FB80
7380
7380
7380
7380
7380
7380
7380
ENDCHAR
STARTCHAR daggerdbl
ENCODING 224
SWIDTH 857 0
DWIDTH 12 0
BBX 8 8 2 0
BITMAP
FF
FF
FF
FF
FF
FF
FF
FF
ENDCHAR
STARTCHAR periodcentered
ENCODING 225
SWIDTH 285 0
DWIDTH 4 0
BBX 2 2 1 4
BITMAP
C0
C0
ENDCHAR
STARTCHAR quotesinglbase
ENCODING 226
SWIDTH 285 0
DWIDTH 4 0
BBX 2 4 1 -2
BITMAP
C0
C0
40
80
ENDCHAR
STARTCHAR quotedblbase
ENCODING 227
SWIDTH 500 0
DWIDTH 7 0
BBX 5 4 1 -2
BITMAP
D8
D8
48
90
ENDCHAR
STARTCHAR perthousand
ENCODING 228
SWIDTH 1357 0
DWIDTH 19 0
BBX 17 11 1 0
BITMAP
707000
D8E000
D9C000
DB8000
770000
070000
0EE700
1DBD80
39BD80
71BD80
E0E700
ENDCHAR
STARTCHAR Acircumflex
ENCODING 229
SWIDTH 857 0
DWIDTH 12 0
BBX 12 15 0 0
BITMAP
0200
0700
0880
0000
0600
0F00
0F00
1F80
1B80
33C0
31C0
7FE0
61E0
C0F0
C0F0
ENDCHAR
STARTCHAR Ecircumflex
ENCODING 230
SWIDTH 642 0
DWIDTH 9 0
BBX 7 15 1 0
BITMAP
10
38
44
00
FE
E0
E0
E0
E0
FC
E0
E0
E0
E0
FE
ENDCHAR
STARTCHAR Aacute
ENCODING 231
SWIDTH 857 0
DWIDTH 12 0
BBX 12 14 0 0
BITMAP
0380
0600
0000
0600
0F00
0F00
1F80
1B80
33C0
31C0
7FE0
61E0
C0F0
C0F0
ENDCHAR
STARTCHAR Edieresis
ENCODING 232
SWIDTH 642 0
DWIDTH 9 0
BBX 7 13 1 0
BITMAP
66
00
FE
E0
E0
E0
E0
FC
E0
E0
E0
E0
FE
ENDCHAR
STARTCHAR Egrave
ENCODING 233
SWIDTH 642 0
DWIDTH 9 0
BBX 7 14 1 0
BITMAP
70
18
00
FE
E0
E0
E0
E0
FC
E0
E0
E0
E0
FE
ENDCHAR
STARTCHAR Iacute
ENCODING 234
SWIDTH 357 0
DWIDTH 5 0
BBX 4 14 1 0
BITMAP
70
C0
00
E0
E0
E0
E0
E0
E0
E0
E0
E0
E0
E0
ENDCHAR
STARTCHAR Icircumflex
ENCODING 235
SWIDTH 357 0
DWIDTH 5 0
BBX 5 15 0 0
BITMAP
20
70
88
00
70
70
70
70
70
70
70
70
70
70
70
ENDCHAR
STARTCHAR Idieresis
ENCODING 236
SWIDTH 357 0
DWIDTH 5 0
BBX 5 13 0 0
BITMAP
D8
00
70
70
70
70
70
70
70
70
70
70
70
ENDCHAR
STARTCHAR Igrave
ENCODING 237
SWIDTH 357 0
DWIDTH 5 0
BBX 4 14 0 0
BITMAP
E0
30
00
70
70
70
70
70
70
70
70
70
70
70
ENDCHAR
STARTCHAR Oacute
ENCODING 238
SWIDTH 1000 0
DWIDTH 14 0
BBX 12 14 1 0
BITMAP
0380
0600
0000
1F80
79E0
70E0
F0F0
F0F0
F0F0
F0F0
F0F0
70E0
79E0
1F80
ENDCHAR
STARTCHAR Ocircumflex
ENCODING 239
SWIDTH 1000 0
DWIDTH 14 0
BBX 12 15 1 0
BITMAP
0200
0700
0880
0000
1F80
79E0
70E0
F0F0
F0F0
F0F0
F0F0
F0F0
70E0
79E0
1F80
ENDCHAR
STARTCHAR apple
ENCODING 240
SWIDTH 785 0
DWIDTH 11 0
BBX 9 11 1 0
BITMAP
0400
0C00
0800
7700
FF80
FE00
FC00
FE00
FF80
7F00
3600
ENDCHAR
STARTCHAR Ograve
ENCODING 241
SWIDTH 1000 0
DWIDTH 14 0
BBX 12 14 1 0
BITMAP
1C00
0600
0000
1F80
79E0
70E0
F0F0
F0F0
F0F0
F0F0
F0F0
70E0
79E0
1F80
ENDCHAR
STARTCHAR Uacute
ENCODING 242
SWIDTH 785 0
DWIDTH 11 0
BBX 9 14 1 0
BITMAP
0700
0C00
0000
E180
E180
E180
E180
E180
E180
E180
E180
E180
7300
3E00
ENDCHAR
STARTCHAR Ucircumflex
ENCODING 243
SWIDTH 785 0
DWIDTH 11 0
BBX 9 15 1 0
BITMAP
0800
1C00
2200
0000
E180
E180
E180
E180
E180
E180
E180
E180
E180
7300
3E00
ENDCHAR
STARTCHAR Ugrave
ENCODING 244
SWIDTH 785 0
DWIDTH 11 0
BBX 9 14 1 0
BITMAP
3800
0C00
0000
E180
E180
E180
E180
E180
E180
E180
E180
E180
7300
3E00
ENDCHAR
STARTCHAR dotlessi
ENCODING 245
SWIDTH 357 0
DWIDTH 5 0
BBX 3 8 1 0
BITMAP
E0
E0
E0
E0
E0
E0
E0
E0
ENDCHAR
STARTCHAR circumflex
ENCODING 246
SWIDTH 500 0
DWIDTH 7 0
BBX 5 3 1 8
BITMAP
20
70
88
ENDCHAR
STARTCHAR tilde
ENCODING 247
SWIDTH 642 0
DWIDTH 9 0
BBX 7 2 1 8
BITMAP
72
9C
ENDCHAR
STARTCHAR macron
ENCODING 248
SWIDTH 428 0
DWIDTH 6 0
BBX 4 1 1 9
BITMAP
F0
ENDCHAR
STARTCHAR breve
ENCODING 249
SWIDTH 428 0
DWIDTH 6 0
BBX 4 2 1 9
BITMAP
90
60
ENDCHAR
STARTCHAR dotaccent
ENCODING 250
SWIDTH 285 0
DWIDTH 4 0
BBX 2 1 1 9
BITMAP
C0
ENDCHAR
STARTCHAR ring
ENCODING 251
SWIDTH 428 0
DWIDTH 6 0
BBX 4 3 1 8
BITMAP
60
90
60
ENDCHAR
STARTCHAR cedilla
ENCODING 252
SWIDTH 357 0
DWIDTH 5 0
BBX 3 4 1 -3
BITMAP
40
40
20
C0
ENDCHAR
STARTCHAR hungarumlaut
ENCODING 253
SWIDTH 571 0
DWIDTH 8 0
BBX 6 2 1 9
BITMAP
6C
D8
ENDCHAR
STARTCHAR ogonek
ENCODING 254
SWIDTH 357 0
DWIDTH 5 0
BBX 3 4 1 -3
BITMAP
40
80
80
60
ENDCHAR
STARTCHAR caron
ENCODING 255
SWIDTH 357 0
DWIDTH 5 0
BBX 3 2 0 9
BITMAP
A0
40
ENDCHAR
ENDFONT
